HIERARCHY
ROOT Hips
{
	OFFSET 0.00000 0.00000 0.00000
	CHANNELS 6 Xposition Yposition Zposition Zrotation Yrotation Xrotation 
	JOINT LHipJoint
	{
		OFFSET 0 0 0
		CHANNELS 3 Zrotation Yrotation Xrotation
		JOINT LeftUpLeg
		{
			OFFSET 1.61328 -1.70571 0.84375
			CHANNELS 3 Zrotation Yrotation Xrotation
			JOINT LeftLeg
			{
				OFFSET 2.32400 -6.38513 0.00000
				CHANNELS 3 Zrotation Yrotation Xrotation
				JOINT LeftFoot
				{
					OFFSET 2.58843 -7.11166 0.00000
					CHANNELS 3 Zrotation Yrotation Xrotation
					JOINT LeftToeBase
					{
						OFFSET 0.17200 -0.47257 2.47970
						CHANNELS 3 Zrotation Yrotation Xrotation
						End Site
						{
							OFFSET 0.00000 -0.00000 1.26912
						}
					}
				}
			}
		}
	}
	JOINT RHipJoint
	{
		OFFSET 0 0 0
		CHANNELS 3 Zrotation Yrotation Xrotation
		JOINT RightUpLeg
		{
			OFFSET -1.49930 -1.70570 0.84375
			CHANNELS 3 Zrotation Yrotation Xrotation
			JOINT RightLeg
			{
				OFFSET -2.30458 -6.33178 0.00000
				CHANNELS 3 Zrotation Yrotation Xrotation
				JOINT RightFoot
				{
					OFFSET -2.62261 -7.20556 0.00000
					CHANNELS 3 Zrotation Yrotation Xrotation
					JOINT RightToeBase
					{
						OFFSET -0.18709 -0.51403 2.51340
						CHANNELS 3 Zrotation Yrotation Xrotation
						End Site
						{
							OFFSET -0.00000 -0.00000 1.28858
						}
					}
				}
			}
		}
	}
	JOINT LowerBack
	{
		OFFSET 0 0 0
		CHANNELS 3 Zrotation Yrotation Xrotation
		JOINT Spine
		{
			OFFSET -0.03798 2.19274 -0.19881
			CHANNELS 3 Zrotation Yrotation Xrotation
			JOINT Spine1
			{
				OFFSET -0.00024 2.19460 0.05248
				CHANNELS 3 Zrotation Yrotation Xrotation
				JOINT Neck
				{
					OFFSET 0 0 0
					CHANNELS 3 Zrotation Yrotation Xrotation
					JOINT Neck1
					{
						OFFSET -0.00746 1.82323 0.17286
						CHANNELS 3 Zrotation Yrotation Xrotation
						JOINT Head
						{
							OFFSET 0.11826 1.82121 -0.27841
							CHANNELS 3 Zrotation Yrotation Xrotation
							End Site
							{
								OFFSET 0.03496 1.85543 -0.11495
							}
						}
					}
				}
				JOINT LeftShoulder
				{
					OFFSET 0 0 0
					CHANNELS 3 Zrotation Yrotation Xrotation
					JOINT LeftArm
					{
						OFFSET 3.71926 0.78840 0.25473
						CHANNELS 3 Zrotation Yrotation Xrotation
						JOINT LeftForeArm
						{
							OFFSET 5.37587 -0.00000 0.00000
							CHANNELS 3 Zrotation Yrotation Xrotation
							JOINT LeftHand
							{
								OFFSET 3.35977 -0.00000 0.00000
								CHANNELS 3 Zrotation Yrotation Xrotation
								JOINT LeftFingerBase
								{
									OFFSET 0 0 0
									CHANNELS 3 Zrotation Yrotation Xrotation
									JOINT LeftHandIndex1
									{
										OFFSET 0.56186 -0.00000 0.00000
										CHANNELS 3 Zrotation Yrotation Xrotation
										End Site
										{
											OFFSET 0.45299 -0.00000 0.00000
										}
									}
								}
								JOINT LThumb
								{
									OFFSET 0 0 0
									CHANNELS 3 Zrotation Yrotation Xrotation
									End Site
									{
										OFFSET 0.45990 -0.00000 0.45990
									}
								}
							}
						}
					}
				}
				JOINT RightShoulder
				{
					OFFSET 0 0 0
					CHANNELS 3 Zrotation Yrotation Xrotation
					JOINT RightArm
					{
						OFFSET -3.65136 0.56074 0.01624
						CHANNELS 3 Zrotation Yrotation Xrotation
						JOINT RightForeArm
						{
							OFFSET -5.22819 -0.00000 0.00000
							CHANNELS 3 Zrotation Yrotation Xrotation
							JOINT RightHand
							{
								OFFSET -3.40764 -0.00000 0.00000
								CHANNELS 3 Zrotation Yrotation Xrotation
								JOINT RightFingerBase
								{
									OFFSET 0 0 0
									CHANNELS 3 Zrotation Yrotation Xrotation
									JOINT RightHandIndex1
									{
										OFFSET -0.58325 -0.00000 0.00000
										CHANNELS 3 Zrotation Yrotation Xrotation
										End Site
										{
											OFFSET -0.47024 -0.00000 0.00000
										}
									}
								}
								JOINT RThumb
								{
									OFFSET 0 0 0
									CHANNELS 3 Zrotation Yrotation Xrotation
									End Site
									{
										OFFSET -0.47742 -0.00000 0.47742
									}
								}
							}
						}
					}
				}
			}
		}
	}
}
MOTION
Frames: 11
Frame Time: .0083333
28.3465 14.7354 -3.5320 -171.8200 -58.1223 194.2580 0.0000 0.0000 0.0000 -13.8829 -10.4497 -70.6991 12.7596 18.6936 68.3772 0.9771 2.5059 -19.7352 0.0108 -0.6723 -1.8474 0.0000 0.0000 0.0000 2.5979 6.2543 -30.3480 -12.3589 -18.5383 67.1220 -0.9568 0.4534 -18.3452 -0.3658 3.8853 -10.7542 -0.0140 4.1319 33.6618 -1.4115 2.3383 15.3895 -2.1458 0.1880 -0.2627 4.8301 7.1377 -3.1904 -10.4446 6.9943 -26.5701 -4.5021 3.1749 -6.9586 0.0000 -0.0000 0.0000 -33.1089 -46.0114 -9.6278 127.0375 -54.1226 -91.4423 -0.0000 0.0000 -6.4229 17.7069 13.7445 4.3380 -7.1250 0.0000 -0.0000 -8.9324 44.1957 0.1788 0.0000 -0.0000 0.0000 40.4015 50.9909 10.3124 -109.3895 58.5307 -76.7089 0.0000 0.0000 5.7358 -33.2192 3.2381 -2.1184 7.1250 -0.0000 -0.0000 -5.0105 -26.1059 -2.3028
28.2996 14.7313 -3.5246 -171.7390 -58.1791 194.0920 0.0000 0.0000 0.0000 -13.9289 -10.6072 -70.4601 12.8082 18.7118 68.5287 1.0019 2.5645 -19.9963 0.0109 -0.6730 -1.8493 0.0000 0.0000 0.0000 2.3436 6.4171 -30.6874 -12.6279 -18.6437 67.9658 -0.8299 -0.0000 -17.2217 -0.2864 3.4416 -9.5108 0.0264 4.1467 33.7242 -1.4319 2.3590 15.4085 -2.1955 0.1989 -0.2609 4.9429 7.1124 -3.2458 -10.4361 6.9672 -26.4997 -4.5120 3.1508 -6.9233 0.0000 -0.0000 0.0000 -33.0454 -46.1913 -9.6494 126.8976 -54.1726 -91.3289 -0.0000 0.0000 -6.3780 17.7530 13.7611 4.3551 -7.1250 0.0000 -0.0000 -8.8946 44.2180 0.1731 0.0000 -0.0000 0.0000 40.5049 50.8244 10.3470 -109.3915 58.5304 -76.7106 0.0000 0.0000 5.7341 -33.2672 3.2592 -2.1361 7.1250 -0.0000 -0.0000 -5.0450 -26.0786 -2.3220
28.2527 14.7271 -3.5167 -171.6620 -58.2173 193.9070 0.0000 0.0000 0.0000 -13.9747 -10.7630 -70.1922 12.8559 18.7295 68.6772 1.0267 2.6416 -20.2639 0.0114 -0.6909 -1.8986 0.0000 0.0000 0.0000 2.0708 6.6104 -31.0618 -12.9199 -18.7530 68.8764 -0.7048 -0.5193 -16.0589 -0.2074 2.9320 -8.0895 0.0609 4.1671 33.8127 -1.4490 2.3818 15.4302 -2.2398 0.2092 -0.2655 5.0453 7.0895 -3.3129 -10.4346 6.9410 -26.4227 -4.5218 3.1284 -6.8839 -0.0000 -0.0000 0.0000 -32.9843 -46.3696 -9.6824 126.7617 -54.2209 -91.2187 -0.0000 0.0000 -6.3509 17.8147 13.7867 4.3791 -7.1250 0.0000 -0.0000 -8.8446 44.2514 0.1648 -0.0000 -0.0000 0.0000 40.5841 50.6629 10.3727 -109.3839 58.5316 -76.7042 0.0000 0.0000 5.7423 -33.3237 3.2852 -2.1577 7.1250 -0.0000 -0.0000 -5.0856 -26.0451 -2.3448
28.2058 14.7229 -3.5083 -171.5880 -58.2356 193.7010 0.0000 0.0000 0.0000 -14.0227 -10.9143 -69.8951 12.9020 18.7465 68.8208 1.0516 2.7406 -20.5397 0.0126 -0.7237 -1.9888 0.0000 0.0000 0.0000 1.7849 6.8332 -31.4717 -13.2328 -18.8646 69.8470 -0.5827 -1.1178 -14.8675 -0.1346 2.3651 -6.5157 0.0945 4.1940 33.9275 -1.4662 2.4090 15.4538 -2.2853 0.2206 -0.2772 5.1485 7.0679 -3.3841 -10.4428 6.9143 -26.3428 -4.5346 3.1065 -6.8424 0.0000 -0.0000 0.0000 -32.9164 -46.5483 -9.7209 126.6343 -54.2659 -91.1153 -0.0000 0.0000 -6.3457 17.8934 13.8307 4.4135 -7.1250 0.0000 -0.0000 -8.7833 44.3057 0.1517 0.0000 -0.0000 0.0000 40.6474 50.5024 10.3876 -109.3695 58.5338 -76.6919 0.0000 0.0000 5.7585 -33.3781 3.3129 -2.1804 7.1250 -0.0000 -0.0000 -5.1243 -26.0095 -2.3671
28.1592 14.7187 -3.4995 -171.5150 -58.2379 193.4830 0.0000 0.0000 0.0000 -14.0733 -11.0633 -69.5785 12.9464 18.7627 68.9590 1.0768 2.8563 -20.8253 0.0138 -0.7597 -2.0878 0.0000 0.0000 0.0000 1.4895 7.0807 -31.9291 -13.5650 -18.9768 70.8716 -0.4644 -1.8075 -13.6567 -0.0750 1.7669 -4.8619 0.1298 4.2257 34.0567 -1.4847 2.4408 15.4782 -2.3349 0.2338 -0.2924 5.2611 7.0463 -3.4503 -10.4655 6.8849 -26.2667 -4.5540 3.0835 -6.8021 0.0000 -0.0000 0.0000 -32.8459 -46.7240 -9.7570 126.5169 -54.3072 -91.0200 -0.0000 0.0000 -6.3633 17.9861 13.8804 4.4533 -7.1250 0.0000 -0.0000 -8.7108 44.3677 0.1370 0.0000 -0.0000 0.0000 40.6995 50.3420 10.3934 -109.3493 58.5370 -76.6746 0.0000 0.0000 5.7772 -33.4301 3.3368 -2.2004 7.1250 -0.0000 -0.0000 -5.1616 -25.9787 -2.3882
28.1130 14.7142 -3.4905 -171.4460 -58.2256 193.2580 0.0000 0.0000 0.0000 -14.1293 -11.2090 -69.2462 12.9896 18.7784 69.0932 1.1031 2.9813 -21.1219 0.0150 -0.7901 -2.1716 0.0000 0.0000 0.0000 1.1882 7.3490 -32.4387 -13.9146 -19.0879 71.9434 -0.3490 -2.6081 -12.4252 -0.0342 1.1929 -3.2797 0.1643 4.2633 34.1952 -1.5027 2.4781 15.5042 -2.3853 0.2490 -0.3088 5.3765 7.0242 -3.5099 -10.4977 6.8528 -26.1945 -4.5775 3.0598 -6.7639 0.0000 0.0000 0.0000 -32.7765 -46.8950 -9.7872 126.4125 -54.3438 -90.9352 -0.0000 0.0000 -6.4014 18.0902 13.9321 4.4971 -7.1250 0.0000 -0.0000 -8.6281 44.4330 0.1217 0.0000 0.0000 0.0000 40.7407 50.1854 10.3867 -109.3159 58.5422 -76.6461 0.0000 0.0000 5.7983 -33.4661 3.3644 -2.2216 7.1250 -0.0000 -0.0000 -5.1864 -25.9442 -2.4040
28.0672 14.7094 -3.4812 -171.3840 -58.2022 193.0300 0.0000 0.0000 0.0000 -14.1893 -11.3530 -68.9044 13.0323 18.7938 69.2257 1.1309 3.1057 -21.4289 0.0154 -0.8023 -2.2050 0.0000 0.0000 0.0000 0.8861 7.6374 -33.0045 -14.2797 -19.1967 73.0570 -0.2372 -3.5156 -11.1843 -0.0100 0.6447 -1.7716 0.2025 4.3067 34.3356 -1.5236 2.5224 15.5332 -2.4429 0.2677 -0.3217 5.5114 7.0001 -3.5646 -10.5421 6.8161 -26.1242 -4.6084 3.0332 -6.7261 -0.0000 0.0000 0.0000 -32.7053 -47.0660 -9.8030 126.3256 -54.3741 -90.8646 -0.0000 0.0000 -6.4538 18.1966 13.9816 4.5410 -7.1250 0.0000 -0.0000 -8.5429 44.4963 0.1070 -0.0000 0.0000 0.0000 40.7802 50.0299 10.3637 -109.2661 58.5500 -76.6037 0.0000 0.0000 5.8183 -33.4910 3.3891 -2.2400 7.1250 -0.0000 -0.0000 -5.2032 -25.9135 -2.4155
28.0220 14.7043 -3.4720 -171.3320 -58.1724 192.8070 0.0000 0.0000 0.0000 -14.2546 -11.4986 -68.5575 13.0749 18.8090 69.3579 1.1589 3.2359 -21.7379 0.0159 -0.8148 -2.2393 0.0000 0.0000 0.0000 0.5861 7.9398 -33.6292 -14.6583 -19.3017 74.2052 -0.1301 -4.4962 -9.9374 -0.0002 0.0933 -0.2565 0.2382 4.3540 34.4730 -1.5448 2.5705 15.5635 -2.5006 0.2881 -0.3319 5.6543 6.9747 -3.6052 -10.5917 6.7774 -26.0597 -4.6432 3.0057 -6.6922 -0.0000 0.0000 0.0000 -32.6403 -47.2303 -9.8044 126.2549 -54.3987 -90.8071 -0.0000 0.0000 -6.5129 18.2946 14.0238 4.5805 -7.1250 0.0000 -0.0000 -8.4635 44.5513 0.0944 -0.0000 0.0000 0.0000 40.8173 49.8792 10.3326 -109.1944 58.5611 -76.5426 0.0000 0.0000 5.8303 -33.5034 3.4099 -2.2548 7.1250 -0.0000 -0.0000 -5.2108 -25.8880 -2.4222
27.9773 14.6986 -3.4628 -171.2920 -58.1362 192.5930 0.0000 0.0000 0.0000 -14.3247 -11.6460 -68.2102 13.1180 18.8243 69.4914 1.1865 3.3751 -22.0449 0.0167 -0.8348 -2.2945 0.0000 0.0000 0.0000 0.2923 8.2462 -34.3153 -15.0480 -19.4016 75.3812 -0.0309 -5.4985 -8.7149 -0.0054 -0.4763 1.3088 0.2680 4.4064 34.6016 -1.5655 2.6231 15.5964 -2.5559 0.3103 -0.3359 5.8052 6.9499 -3.6372 -10.6449 6.7396 -25.9979 -4.6810 2.9784 -6.6601 0.0000 -0.0000 0.0000 -32.5759 -47.3894 -9.7979 126.1973 -54.4186 -90.7602 -0.0000 0.0000 -6.5770 18.3797 14.0557 4.6135 -7.1250 0.0000 -0.0000 -8.3933 44.5943 0.0847 0.0000 -0.0000 0.0000 40.8560 49.7331 10.2966 -109.0979 58.5760 -76.4602 0.0000 0.0000 5.8359 -33.5089 3.4289 -2.2678 7.1250 -0.0000 -0.0000 -5.2134 -25.8651 -2.4262
27.9330 14.6924 -3.4539 -171.2670 -58.1010 192.3920 0.0000 0.0000 0.0000 -14.4017 -11.8031 -67.8632 13.1616 18.8397 69.6266 1.2129 3.5276 -22.3474 0.0179 -0.8640 -2.3748 0.0000 0.0000 0.0000 0.0076 8.5408 -35.0611 -15.4463 -19.4954 76.5775 0.0539 -6.4339 -7.6100 -0.0276 -1.0730 2.9496 0.2844 4.4548 34.7206 -1.5824 2.6672 15.6319 -2.5976 0.3274 -0.3347 5.9367 6.9306 -3.6612 -10.6878 6.7116 -25.9401 -4.7130 2.9571 -6.6315 -0.0000 0.0000 0.0000 -32.5154 -47.5265 -9.8003 126.1485 -54.4355 -90.7206 -0.0000 0.0000 -6.6371 18.4503 14.0810 4.6406 -7.1250 0.0000 -0.0000 -8.3349 44.6287 0.0769 -0.0000 0.0000 0.0000 40.8954 49.6098 10.2768 -108.9698 58.5956 -76.3509 0.0000 0.0000 5.8308 -33.5196 3.4383 -2.2749 7.1250 -0.0000 -0.0000 -5.2207 -25.8534 -2.4311
27.8892 14.6855 -3.4453 -171.2570 -58.0740 192.2040 0.0000 0.0000 0.0000 -14.4840 -11.9756 -67.5189 13.2062 18.8553 69.7646 1.2386 3.6940 -22.6480 0.0193 -0.8963 -2.4635 0.0000 0.0000 0.0000 -0.2599 8.8076 -35.8619 -15.8502 -19.5820 77.7851 0.1198 -7.2320 -6.7369 -0.0653 -1.6489 4.5362 0.2888 4.4938 34.8270 -1.5930 2.6967 15.6702 -2.6219 0.3365 -0.3275 6.0398 6.9185 -3.6808 -10.7161 6.6962 -25.8841 -4.7360 2.9437 -6.6052 0.0000 0.0000 0.0000 -32.4607 -47.6393 -9.8199 126.1012 -54.4518 -90.6821 -0.0000 0.0000 -6.6897 18.5052 14.0960 4.6601 -7.1250 0.0000 -0.0000 -8.2884 44.6506 0.0720 0.0000 0.0000 0.0000 40.9408 49.5089 10.2836 -108.8180 58.6188 -76.2213 0.0000 0.0000 5.8158 -33.5341 3.4454 -2.2808 7.1250 -0.0000 -0.0000 -5.2310 -25.8442 -2.4370
